<?xml version="1.0" encoding="UTF-8"?>
<!DOCTYPE svg PUBLIC "-//W3C//DTD SVG 1.1//EN" "http://www.w3.org/Graphics/SVG/1.1/DTD/svg11.dtd">
<!-- Creator: CorelDRAW 2021.5 -->
<svg xmlns="http://www.w3.org/2000/svg" xml:space="preserve" width="17.1057mm" height="20.9658mm" version="1.1" style="shape-rendering:geometricPrecision; text-rendering:geometricPrecision; image-rendering:optimizeQuality; fill-rule:evenodd; clip-rule:evenodd"
viewBox="0 0 1394.87 1709.64"
 xmlns:xlink="http://www.w3.org/1999/xlink"
 xmlns:xodm="http://www.corel.com/coreldraw/odm/2003">
 <defs>
  <style type="text/css">
   <![CDATA[
    .fil1 {fill:#2C6EB5}
    .fil0 {fill:#F47D35}
   ]]>
  </style>
 </defs>
 <g id="Layer_x0020_1">
  <metadata id="CorelCorpID_0Corel-Layer"/>
  <path class="fil0" d="M671.68 836.97c34.19,245.48 -64.15,499.24 -54.39,554.39 9.52,33.51 50.93,28.61 65.46,18.17 138.86,-99.8 176.34,-428.12 183.75,-569.95 6.83,-130.3 -137.65,-69.99 -194.82,-2.6z"/>
  <path class="fil1" d="M1358.29 100.42c-65.48,98.17 -220.49,139.68 -516.65,181.84 -326.12,46.44 -593.32,295.28 -614.21,624.5 -16.1,254.12 132.72,465.66 359.91,560.83 -437.16,-161.63 -586.66,-537.68 -462.75,-991.48 159.17,-244.29 448.17,-380.68 732.08,-379.02 170.71,1 396.23,-21.62 468.39,-79.37 53,-42.41 92.57,-6.32 33.22,82.69zm-505.82 1609.09l0 0.13 -2.1 -0.16c0.61,0 1.2,0.03 1.8,0.03l0.29 0zm-828.97 -609.34c-13.36,-51.82 -21.32,-106.68 -23.08,-164.5 -5.4,-178.2 41.67,-332.06 122.94,-457.61 -119.49,189.28 -150.33,415.49 -99.86,622.11z"/>
  <path class="fil0" d="M552.27 1108c-200.14,-414.89 632.21,-670.16 595.11,-346.64 -10.59,92.35 -213.19,156.42 -218.02,232.43 -3.57,55.83 41.12,87.08 123.18,135.98 178.74,99.56 -35.32,495.19 -461.82,339.11 -439.83,-160.95 -590.4,-537.87 -466.07,-992.92 -311.67,490.33 -26.78,1230.79 727.54,1233.56 449.51,1.66 735.39,-501.09 388.61,-699.67 -28.43,-16.28 -16.59,-25.28 3.58,-41.64 246.94,-200.34 215.48,-652.93 -377.31,-534.42 -504.25,100.82 -566.77,632.31 -343.52,709.96 24.15,8.4 44.75,-2.53 28.73,-35.75z"/>
 </g>
</svg>
